<svg width="29" height="29" viewBox="0 0 29 29" fill="none" xmlns="http://www.w3.org/2000/svg">
<g clip-path="url(#clip0_719_30)">
<path d="M14.5 17.4387L28.826 23.1614L28.942 23.2H29L14.5 29L0 23.2H0.0966667L0.174 23.1614L14.5 17.4387ZM14.5 19.488L5.20067 23.2L14.5 26.912L23.7993 23.2L14.5 19.488ZM14.0167 0.193359V16.4334L14.036 16.5494V16.588L9.66667 18.328V10.6527C9.66673 10.3088 9.58107 9.97034 9.41743 9.6679C9.25379 9.36545 9.01734 9.10856 8.72945 8.92048C8.44157 8.7324 8.11134 8.61905 7.76863 8.59068C7.42593 8.56232 7.08156 8.61983 6.76667 8.75803C5.12333 9.47336 4.002 11.0587 3.886 12.8374L3.86667 13.1854V20.648L0 22.1947V5.80003L14.0167 0.193359ZM14.9833 0.193359L29 5.80003V22.1947L14.964 16.588L14.9833 16.5107V0.193359ZM18.85 7.73336V13.5334L24.65 15.95V10.15L18.85 7.73336ZM7.73333 13.05C8.27467 13.05 8.7 13.4754 8.7 14.0167C8.7 14.558 8.27467 14.9834 7.73333 14.9834C7.192 14.9834 6.76667 14.558 6.76667 14.0167C6.76667 13.4754 7.192 13.05 7.73333 13.05Z" fill="#AD8B3A"/>
</g>
<defs>
<clipPath id="clip0_719_30">
<rect width="29" height="29" fill="white"/>
</clipPath>
</defs>
</svg>
