<svg width="32" height="32" viewBox="0 0 32 32" fill="none" xmlns="http://www.w3.org/2000/svg">
<path d="M6.576 5.71429C5.43936 5.71429 4.34927 6.16582 3.54554 6.96955C2.74181 7.77328 2.29028 8.86337 2.29028 10V10.8572H29.7143V10C29.7143 8.86337 29.2628 7.77328 28.459 6.96955C27.6553 6.16582 26.5652 5.71429 25.4286 5.71429H6.576ZM2.29028 22V12.5714H29.7143V22C29.7143 23.1367 29.2628 24.2267 28.459 25.0305C27.6553 25.8342 26.5652 26.2857 25.4286 26.2857H6.57714C5.4405 26.2857 4.35041 25.8342 3.54668 25.0305C2.74296 24.2267 2.29143 23.1367 2.29143 22M20.8571 18.8572C20.6298 18.8572 20.4118 18.9475 20.251 19.1082C20.0903 19.2689 20 19.487 20 19.7143C20 19.9416 20.0903 20.1596 20.251 20.3204C20.4118 20.4811 20.6298 20.5714 20.8571 20.5714H24.8571C25.0845 20.5714 25.3025 20.4811 25.4632 20.3204C25.624 20.1596 25.7143 19.9416 25.7143 19.7143C25.7143 19.487 25.624 19.2689 25.4632 19.1082C25.3025 18.9475 25.0845 18.8572 24.8571 18.8572H20.8571Z" fill="#A4A4A4"/>
</svg>
